<?xml version="1.0" encoding="UTF-8"?><svg id="uuid-205bb036-3650-4b54-9690-f828d6f1537a" xmlns="http://www.w3.org/2000/svg" viewBox="0 0 691.88 126.11"><defs><style>.uuid-e0dacc0c-1971-4c30-aacc-8e6cbabb6a19{fill:#ff0;}.uuid-9d496528-0403-4224-aace-3a5baa09db6c{fill:#3636f2;}</style></defs><path class="uuid-9d496528-0403-4224-aace-3a5baa09db6c" d="M429.45,35.16c-1.9-5.17-4.65-9.66-8.24-13.46-3.6-3.8-7.88-6.71-12.85-8.73s-10.53-3.03-16.67-3.03h-34.07V94.8h34.07c6.14,0,11.72-1.01,16.73-3.03,5.01-2.02,9.29-4.91,12.85-8.67,3.56-3.76,6.28-8.24,8.18-13.46,1.9-5.21,2.85-10.97,2.85-17.27s-.95-12.04-2.85-17.21Zm-14.85,28.79c-1.13,3.44-2.79,6.36-4.97,8.79-2.18,2.43-4.83,4.28-7.94,5.58-3.11,1.29-6.65,1.94-10.61,1.94h-17.7V24.49h17.7c3.96,0,7.47,.65,10.55,1.94,3.07,1.29,5.72,3.15,7.94,5.58,2.22,2.43,3.9,5.36,5.03,8.79,1.13,3.44,1.7,7.29,1.7,11.58s-.57,8.14-1.7,11.58Z"/><polygon class="uuid-9d496528-0403-4224-aace-3a5baa09db6c" points="567.11 30.91 549.72 75.04 532.92 30.91 516.68 30.91 543.59 94.8 554.74 94.8 582.99 30.91 567.11 30.91"/><path class="uuid-9d496528-0403-4224-aace-3a5baa09db6c" d="M510.83,51.23c-2.31-10.67-11-19.81-22.16-23.27-10.35-3.21-21.56-2.1-30,2.99-9.52,5.74-15.58,17.76-15.06,29.9,.02,.37,.04,.75,.07,1.12,.85,11.16,7.35,21.67,16.96,27.41,4.63,2.77,9.66,4.24,14.42,4.24,.89,0,1.76-.05,2.63-.15l.81-.1-.02-12.84-.69-.17c-5.65-1.42-13.6-4.03-17.32-10.32-1.26-2.14-2.05-4.78-2.27-7.63-.31-4.04,.54-8.2,2.4-11.72,3.32-6.28,9.96-10.5,16.9-10.76,7.03-.28,14,3.66,17.26,9.78,2.05,3.85,2.64,8.34,2.95,12.23,.18,2.34,.26,4.69,.31,7.05,.02,.82,.04,1.64,.05,2.46,.02,3.17-.05,6.32-.11,9.43-.07,3.82-.15,7.78-.09,11.68v.9s13.72,0,13.72,0l.07-23.19v-.45s.02-6.43,.02-6.43c.01-3.99,.02-8.13-.85-12.16Z"/><path class="uuid-e0dacc0c-1971-4c30-aacc-8e6cbabb6a19" d="M291.9,68.02c-.02,.1-.03,.2-.05,.3,.02-.1,.03-.2,.05-.3Z"/><path class="uuid-9d496528-0403-4224-aace-3a5baa09db6c" d="M303.15,46.22c-2.91-5.01-6.87-8.95-11.88-11.82-4.23-2.42-8.95-3.81-14.15-4.19h0c-.97-.07-1.94-.12-2.94-.12-6.3,0-11.96,1.43-16.97,4.3-5.01,2.87-8.95,6.81-11.82,11.82-2.73,4.78-4.15,10.18-4.28,16.2h0c0,.3-.03,.59-.03,.89,0,6.39,1.43,12.08,4.3,17.09,2.87,5.01,6.81,8.95,11.82,11.82,5.01,2.87,10.67,4.3,16.97,4.3s12.08-1.43,17.09-4.3c5.01-2.87,8.97-6.81,11.88-11.82,1.4-2.41,2.46-4.99,3.18-7.72,.24-.9,.44-1.82,.61-2.76,.38-2.12,.57-4.32,.57-6.62,0-6.38-1.45-12.08-4.36-17.09Zm-11.25,21.8c-.02,.1-.03,.2-.05,.3-.38,1.84-.97,3.58-1.79,5.18-1.54,2.99-3.7,5.37-6.49,7.15-2.79,1.78-5.92,2.67-9.4,2.67s-6.57-.89-9.27-2.67c-2.71-1.78-4.85-4.16-6.43-7.15-1.58-2.99-2.32-6.39-2.24-10.19,0-.19,.02-.37,.02-.56,0-3.64,.72-6.9,2.22-9.74,1.58-2.99,3.72-5.35,6.43-7.09,2.71-1.74,5.8-2.61,9.27-2.61,1.01,0,1.99,.1,2.94,.24h0c2.32,.36,4.48,1.13,6.45,2.36,2.79,1.74,4.95,4.12,6.49,7.15,1.54,3.03,2.3,6.45,2.3,10.24,0,1.65-.17,3.21-.46,4.71Z"/><path class="uuid-9d496528-0403-4224-aace-3a5baa09db6c" d="M691.88,58.49l-.08-53.42h-12.9s-.01,.85-.01,.85c-.06,3.67,.01,32.5,.08,36.1,.11,5.86,.23,11.92-.23,17.83-.29,3.66-.84,7.89-2.78,11.52-3.07,5.75-9.58,9.48-16.25,9.21-6.54-.24-12.78-4.22-15.91-10.13-.38-.72-.69-1.47-.98-2.24-.17-.45-.3-.91-.43-1.37,0,0,0,0,0,0-.71-2.39-1.03-4.91-.84-7.4,.21-2.68,.95-5.16,2.14-7.18,3.5-5.92,10.98-8.38,16.3-9.71l.65-.16,.02-12.09-.76-.09c-5.18-.61-10.88,.75-16.05,3.84-9.04,5.41-15.16,15.3-15.97,25.81-.03,.35-.05,.71-.06,1.06-.14,3.28,.25,6.54,1.06,9.66,0,.01,0,.03,0,.04,.18,.69,.38,1.37,.6,2.05,2.27,6.89,6.7,12.87,12.5,16.38,4.95,2.99,10.91,4.52,17.06,4.52,3.72,0,7.51-.56,11.18-1.7,10.5-3.26,18.69-11.86,20.86-21.91,.82-3.8,.81-7.68,.8-11.44Z"/><polygon class="uuid-9d496528-0403-4224-aace-3a5baa09db6c" points="54.43 45.1 15.76 45.1 15.76 9.94 0 9.94 0 94.8 15.76 94.8 15.76 59.89 54.43 59.89 54.43 94.8 70.19 94.8 70.19 9.94 54.43 9.94 54.43 45.1"/><path class="uuid-9d496528-0403-4224-aace-3a5baa09db6c" d="M213.83,29.58l.05,6.14-.05,27.25c0,3.96-.87,7.41-2.6,10.36-1.74,2.95-4.01,5.19-6.81,6.71-2.81,1.53-5.83,2.3-9.08,2.3s-6.19-.78-9.03-2.35c-2.84-1.56-5.13-3.83-6.87-6.82-.85-1.47-1.49-3.05-1.92-4.75-.03-.12-.05-.26-.08-.38-.39-1.65-.6-3.4-.6-5.27,0-3.96,.87-7.38,2.6-10.26,1.73-2.88,4.01-5.07,6.81-6.56,2.8-1.49,5.5-2.23,8.74-2.23v-13.59c-.75-.03-1.51-.03-2.29-.02-5.38,.1-10.3,1.33-14.75,3.99-4.45,2.66-7.96,6.37-10.54,11.15-2.58,4.79-4.17,12.16-4.17,18.36,0,2.38,.19,4.67,.58,6.86,.07,.37,.15,.74,.22,1.11,.64,3.09,1.65,5.98,3.07,8.67,5.04,9.58,15.88,14.95,26.35,15.55,7.37,.43,14.83-1.45,20.35-6.19,0,0,0,6.17,0,6.17,0,5.99-.98,9.88-4.16,13.02-3.18,3.15-7.35,4.72-12.51,4.72-4.41,0-8.2-.99-11.38-2.97-3.18-1.98-4.51-4.96-5.48-8.18l-13.83-.09c.74,6.72,5.33,14.01,10.72,17.94,5.96,4.33,11.5,5.42,18.99,5.83,6.27,.34,12.42-.74,16.95-3.29,4.52-2.54,7.97-6.03,10.37-10.48,2.39-4.44,3.22-10.81,3.22-16.49V29.58h-12.89Z"/><path class="uuid-9d496528-0403-4224-aace-3a5baa09db6c" d="M89.39,70.33c.06,.53,.13,1.06,.21,1.59,2.26,14.22,14.57,25.13,29.41,25.13,16.48,0,29.89-13.41,29.89-29.89V29.58h-14.69v37.59c0,8.38-6.81,15.19-15.19,15.19-5.4,0-10.49-2.99-13.15-7.68-2.17-3.83-1.97-8.02-1.97-12.25V29.58s-14.69,0-14.69,0v28.61c0,2.72,0,5.43,0,8.15,0,1.34,.06,2.67,.2,3.99Z"/><g><rect class="uuid-9d496528-0403-4224-aace-3a5baa09db6c" x="595.6" y="30.91" width="14.91" height="63.89"/><path class="uuid-9d496528-0403-4224-aace-3a5baa09db6c" d="M602.93,17.34c4.79,0,8.67-3.88,8.67-8.67s-3.88-8.67-8.67-8.67-8.67,3.88-8.67,8.67,3.88,8.67,8.67,8.67Z"/></g></svg>