<?xml version="1.0" encoding="UTF-8"?><svg id="uuid-05a3ad04-2b89-4005-a586-d724a9950576" xmlns="http://www.w3.org/2000/svg" viewBox="0 0 345.37 181.06"><defs><style>.uuid-c3916a29-ffbc-4b63-bebf-ddd079618d99{fill:#fff;}.uuid-8f306f00-14a6-4b45-ac46-7a681564fd4f{fill:#3636f2;}</style></defs><ellipse class="uuid-8f306f00-14a6-4b45-ac46-7a681564fd4f" cx="172.68" cy="90.53" rx="172.68" ry="90.53"/><g id="uuid-62c38709-bcc6-47aa-be49-471d0bedbc2a"><g><path class="uuid-c3916a29-ffbc-4b63-bebf-ddd079618d99" d="M72.51,147.64h-19.67c5.86-30.12,11.69-60.11,17.55-90.19,.54-.02,1.02-.07,1.5-.07,12.06,0,24.12,0,36.18,0,4.78,0,9.51,.42,14.06,1.93,9.93,3.31,15.79,10.13,16.54,20.61,1.11,15.51-5.71,30.69-20.8,39.13-5.42,3.03-11.4,4.18-17.51,4.41-7.2,.27-14.41,.24-21.61,.26-1.23,0-1.65,.33-1.87,1.55-1.27,6.88-2.64,13.74-3.98,20.6-.11,.57-.24,1.13-.38,1.76Zm7.46-38.17c8-.31,15.97,.79,23.74-1.52,4.25-1.27,7.71-3.63,9.99-7.47,3.42-5.76,4.81-12.07,4.43-18.71-.26-4.53-2.7-7.6-7.14-8.8-2.11-.57-4.31-1.05-6.48-1.13-5.24-.2-10.48-.1-15.72-.21-1.17-.02-1.58,.37-1.79,1.5-.88,4.86-1.86,9.7-2.8,14.55-1.4,7.2-2.79,14.39-4.23,21.8Z"/><path class="uuid-c3916a29-ffbc-4b63-bebf-ddd079618d99" d="M224.19,57.37h1.47c12.06,0,24.12,0,36.18,0,4.73,0,9.4,.44,13.92,1.87,10.09,3.19,16.27,10.54,16.71,21.24,.69,16.74-6.04,29.85-20.67,38.47-5.39,3.18-11.47,4.27-17.63,4.51-7.1,.27-14.21,.21-21.32,.29-.58,0-1.16,0-1.86,0-.74,3.77-1.46,7.45-2.18,11.14-.77,3.94-1.52,7.88-2.35,11.8-.09,.4-.67,1-1.03,1-6.03,.06-12.06,.04-18.09,.03-.18,0-.37-.09-.7-.17,5.84-30.04,11.68-60.03,17.54-90.18Zm9.58,52.09c7.73-.28,15.39,.7,22.91-1.28,4.86-1.28,8.75-3.9,11.21-8.36,3-5.44,4.32-11.32,4.08-17.5-.2-5.16-2.63-8.18-7.63-9.5-2.39-.63-4.91-.97-7.38-1.06-4.84-.18-9.7-.06-14.55-.14-1.08-.02-1.4,.4-1.58,1.38-1.3,6.87-2.66,13.73-4,20.59-1.02,5.22-2.02,10.45-3.06,15.87Z"/><path class="uuid-c3916a29-ffbc-4b63-bebf-ddd079618d99" d="M136.74,123.57c.83-4.28,1.65-8.55,2.48-12.81,4.36-22.43,8.73-44.85,13.1-67.27,.59-3.03,1.15-6.06,1.8-9.07,.09-.42,.66-1.04,1.01-1.04,6.17-.06,12.34-.05,18.7-.05-1.56,8.04-3.09,15.94-4.66,24.05,.62,0,1.14,0,1.66,0,7.55,.1,15.1,.09,22.64,.34,3.92,.13,7.77,.98,11.39,2.6,6.34,2.84,9.61,8.36,8.74,15.9-.69,6.06-1.94,12.07-3.07,18.07-1.78,9.42-3.67,18.82-5.5,28.24-.12,.64-.12,1.24-1.06,1.24-6.27-.03-12.54-.01-19-.01,.56-2.89,1.09-5.65,1.62-8.42,2.15-11.19,4.4-22.37,6.41-33.59,1.12-6.28-1.11-9.2-7.45-9.56-6.11-.35-12.25-.14-18.38-.21-.94-.01-.95,.58-1.07,1.23-2.03,10.47-4.07,20.94-6.12,31.4-1.17,6-2.35,12-3.5,18.01-.13,.69-.26,1.16-1.14,1.16-6.03-.04-12.06-.03-18.09-.04-.13,0-.27-.08-.5-.15Z"/></g></g></svg>