<?xml version="1.0" encoding="UTF-8"?><svg id="uuid-0e2ab795-c2d0-4da4-ba46-4d3352f71cfc" xmlns="http://www.w3.org/2000/svg" viewBox="0 0 387.78 205.65"><defs><style>.uuid-a757a00b-6c86-430c-ba55-1446a837e8b8{fill:#fff;}.uuid-8388f696-46bd-4948-bb61-425bc777a382{fill:#3636f2;}</style></defs><rect class="uuid-8388f696-46bd-4948-bb61-425bc777a382" width="387.78" height="205.65"/><g id="uuid-7cef284d-3767-4067-910d-dc6dec8b5c49"><g><path class="uuid-a757a00b-6c86-430c-ba55-1446a837e8b8" d="M117.6,164.53h-9.05v-36.03c-.09-.02-.18-.04-.26-.07-.18,.36-.38,.71-.55,1.07-4.53,10.1-9.11,20.19-13.57,30.32-1.59,3.62-4.17,5.42-8.11,5.26-.94-.04-1.88-.02-2.8-.14-2.92-.39-4.73-2.19-5.88-4.78-2.57-5.77-5.17-11.53-7.75-17.29-2.01-4.48-4.02-8.97-6.03-13.45-.15-.34-.34-.66-.5-.98-.1,.02-.2,.03-.29,.05v36.1c-2.92,0-5.64,.01-8.37-.03-.22,0-.54-.36-.62-.62-.11-.36-.04-.77-.04-1.16,0-11.09,.05-22.19-.02-33.28-.03-5.06,.9-6.88,6.54-8.02,2.1-.42,4.19-.53,6.25,.12,2.6,.81,4.28,2.6,5.34,5.07,3.74,8.7,7.5,17.4,11.26,26.1,.72,1.67,1.46,3.34,2.3,5.27,.32-.63,.53-1.02,.71-1.43,4.34-9.72,8.77-19.4,12.96-29.18,2.2-5.12,6.07-7,11.61-6.03,.88,.15,1.75,.39,2.61,.66,3.01,.95,4.26,2.61,4.26,5.78,.02,10.35,0,20.7,.01,31.05,0,1.83,0,3.67,0,5.64Z"/><path class="uuid-a757a00b-6c86-430c-ba55-1446a837e8b8" d="M263.78,162.87c2.95,2.68,5.77,5.24,8.82,8.01-1.95,0-3.67-.18-5.33,.04-3.5,.46-6.32-.5-8.53-3.29-.5-.64-1.3-1.04-1.79-1.68-1.31-1.68-3.03-1.66-4.93-1.6-5.61,.16-11.24,.31-16.85,.13-2.84-.09-5.59-1.1-7.96-2.82-2.16-1.56-3.42-3.68-3.44-6.35-.06-7.93-.05-15.86-.02-23.79,.01-2.93,1.46-5.12,3.87-6.7,2.34-1.53,4.99-2.41,7.72-2.47,7.42-.15,14.84-.17,22.26,0,2.89,.07,5.67,1.02,8.12,2.72,2.53,1.76,3.59,4.29,3.61,7.25,.05,7.38,.05,14.77,0,22.15-.02,3.59-1.38,6.45-4.88,7.96-.17,.07-.32,.21-.66,.43Zm-22.44-11.04c3.31,0,6.27-.04,9.24,.03,.59,.01,1.29,.29,1.75,.68,1.81,1.54,3.57,3.16,5.3,4.79,.58,.55,1.02,.54,1.61,.07,1.33-1.08,1.77-2.51,1.77-4.15,0-6.56,0-13.13,0-19.69,0-2.86-1.17-4.42-3.95-5.17-.89-.24-1.84-.39-2.76-.4-4.77-.04-9.54-.07-14.31,.02-1.29,.03-2.64,.35-3.86,.8-1.91,.71-2.86,2.24-2.87,4.28-.02,6.68-.04,13.36,0,20.04,.02,3.01,1.78,5.17,4.76,5.42,3.41,.29,6.86,.16,10.29,.21,.05,0,.1-.1,.29-.3-2.34-2.14-4.69-4.28-7.27-6.64Z"/><path class="uuid-a757a00b-6c86-430c-ba55-1446a837e8b8" d="M257.77,87.3c3.98,10.02,8.83,19.5,16.56,27.36-.31-.2-.57-.33-.78-.52-2.9-2.62-5.81-5.21-8.67-7.88-2.61-2.44-4.41-5.45-5.85-8.69-.3-.67-.66-1.31-.99-1.96-.11,0-.22,0-.33,0-.26,1.37-.52,2.74-.76,4.12-.24,1.3-.33,2.64-.72,3.9-.82,2.69-3.6,3.69-6.02,2.22-1.94-1.18-3.16-3.02-4.14-4.99-2.43-4.88-3.3-10.1-2.69-15.47,.4-3.54,1.33-7.03,2.05-10.54,.09-.45,.24-.93,.48-1.31,.45-.69,.31-1.3-.19-1.8-3.17-3.21-4.69-7.32-6.2-11.42-.77-2.08-1.27-4.26-2.09-6.32-.6-1.5-1.4-2.96-2.31-4.3-1.34-1.97-2.88-3.79-4.28-5.72-1.37-1.89-2.45-3.9-2.24-6.37,.25-2.96,2.41-5.2,5.36-5.12,1.92,.06,3.89,.41,5.7,1.03,3.07,1.06,5.99,2.52,8.39,4.78,1.06,1,2.31,1.09,3.58,1.11,6.23,.13,11.62,2.46,16.77,5.83,9.39,6.15,17.03,13.93,22.74,23.57,.87,1.47,1.51,3.08,2.22,4.63,3.04,6.58,6.08,13.17,9.1,19.76,.7,1.52,1.82,2.37,3.4,2.94,6.6,2.38,12.29,6.28,17.53,10.85,1.93,1.68,3.56,3.7,5.31,5.58,.14,.15,.17,.4,.38,.9-5.18,1.03-10.24,2.03-15.67,3.1,.76,.94,1.23,1.77,1.92,2.31,1.31,1.04,2.71,1.99,4.15,2.84,3.69,2.17,6.85,4.91,9.5,8.25,1.08,1.36,2.69,2.31,3.15,4.14,.02,.07,0,.14,0,.31-.22-.14-.42-.23-.58-.37-3.38-3.08-7.21-5.43-11.38-7.31-3.91-1.77-7.48-4.09-10.13-7.56-.82-1.07-1.37-2.35-2.03-3.54-.41-.75,.11-1.13,.67-1.33,2.97-1.07,5.94-2.19,9.14-2.38,2.14-.13,4.27-.22,6.72-.35-.52-.63-.83-1.23-1.33-1.57-5.91-4.04-11.48-8.73-18.72-10.34-2.8-.62-4.76-2.18-5.95-4.78-2.96-6.49-6.07-12.92-8.9-19.46-2.61-6.03-6.22-11.36-10.59-16.19-5.78-6.39-12.55-11.45-20.55-14.83-3.13-1.32-6.42-1.22-9.66-1.55-1.31-.14-2.26-.66-3.21-1.44-3.2-2.59-6.84-4.36-10.81-5.38-2.33-.6-3.83,1.04-2.97,3.28,.51,1.33,1.21,2.66,2.14,3.73,4.1,4.72,6.78,10.13,8.43,16.14,.68,2.45,1.86,4.79,3,7.08,.58,1.16,1.48,2.2,2.41,3.14,1.33,1.34,1.75,2.8,1.18,4.58-.76,2.37-1.69,4.71-2.21,7.14-1.32,6.19-.86,12.27,1.77,18.08,.51,1.13,1.33,2.22,2.25,3.06,1.01,.92,1.5,.62,1.69-.75,.33-2.35,.57-4.72,1.01-7.06,.52-2.77,2.16-5.41,4.23-7.17Z"/><path class="uuid-a757a00b-6c86-430c-ba55-1446a837e8b8" d="M125.73,177.42v-5.92h1.42c9.03,0,18.06,.04,27.09-.04,1.39-.01,2.84-.46,4.16-.97,1.22-.46,1.81-1.54,1.76-2.91-.03-1.01,0-2.03,0-3.25-.51,0-.96,0-1.41,0-5.86,0-11.73,.01-17.59,0-3.06,0-6.11-.27-8.96-1.44-1.49-.62-2.94-1.46-4.23-2.44-1.78-1.35-2.53-3.28-2.51-5.54,.06-6.48,.06-12.97,.09-19.45,0-.11,.05-.22,.09-.41h8.86v1.44c0,5.86,0,11.72,0,17.58,0,3.2,1.35,4.69,4.57,4.76,4.1,.09,8.21,.06,12.31,.07,2.89,0,5.77,0,8.77,0,.03-.65,.08-1.18,.08-1.71,0-6.91,0-13.83,0-20.74,0-1.52,0-1.53,1.55-1.53,2.15,0,4.3,.03,6.45-.02,.84-.02,1.07,.29,1.07,1.08-.03,10.66-.03,21.33-.05,31.99,0,2.96-1.44,5.13-3.85,6.7-2.79,1.81-5.93,2.73-9.19,2.77-9.93,.12-19.86,.04-29.79,.04-.19,0-.39-.02-.7-.04Z"/><path class="uuid-a757a00b-6c86-430c-ba55-1446a837e8b8" d="M203.01,122.06c4.5,0,8.99,.02,13.49-.02,.96,0,1.33,.26,1.27,1.25-.07,1.17-.07,2.35,0,3.51,.06,.95-.31,1.19-1.22,1.18-8.33-.03-16.65-.04-24.98,0-1.19,0-2.4,.23-3.58,.47-1.29,.27-2.08,1.19-2.15,2.47-.1,2.02-.16,4.06,.05,6.06,.2,1.91,1.92,3.17,4.12,3.34,1.56,.11,3.12,.17,4.68,.19,3.48,.04,6.96-.07,10.44,.09,3.4,.16,6.6,1.13,9.42,3.13,1.99,1.41,3.04,3.28,2.94,5.77-.07,1.68-.04,3.36,0,5.04,.07,3.09-1.24,5.4-3.81,7.06-2.93,1.89-6.19,2.86-9.63,2.9-8.76,.1-17.51,.03-26.27,.05-.86,0-1.2-.25-1.16-1.13,.06-1.21,.07-2.42,0-3.63-.06-.96,.34-1.18,1.23-1.18,8.05,.03,16.11,.04,24.16,0,1.15,0,2.35-.17,3.45-.5,2.06-.62,3-2.05,3.01-4.21,0-.9,0-1.8,0-2.7,0-3.36-1.32-4.97-4.66-5.14-4.4-.22-8.82-.13-13.23-.29-3.42-.12-6.74-.83-9.74-2.6-2.64-1.55-4.29-3.67-4.04-6.95,.17-2.25,.04-4.53,.3-6.77,.21-1.9,1.37-3.37,2.93-4.48,2.95-2.09,6.31-2.84,9.84-2.9,4.38-.07,8.76-.02,13.14-.02h0Z"/><path class="uuid-a757a00b-6c86-430c-ba55-1446a837e8b8" d="M275.39,138.75c0-5.12,.03-10.24-.03-15.35-.01-1.12,.36-1.39,1.41-1.36,2.07,.07,4.15,.08,6.22,0,1.07-.04,1.4,.26,1.39,1.37-.04,9.73,.08,19.46-.07,29.18-.07,4.45,1.69,5.85,6.02,6,4.88,.17,9.77,.05,14.66,.05,3.32,0,6.65,.02,9.97-.01,.8,0,1.13,.22,1.09,1.06-.05,1.29-.03,2.58,0,3.87,.01,.66-.14,1.01-.91,1.01-8.17-.02-16.35,.12-24.51-.09-2.84-.07-5.75-.7-8.46-1.57-4.77-1.53-6.77-4.63-6.77-9.62,0-4.84,0-9.69,0-14.53Z"/><path class="uuid-a757a00b-6c86-430c-ba55-1446a837e8b8" d="M327.29,165.02c-3.64-.02-6.59-2.98-6.62-6.65-.03-3.66,3.04-6.75,6.69-6.75,3.66,0,6.73,3.1,6.67,6.76-.06,3.76-3,6.66-6.74,6.64Zm.17-12.19c-3.16-.02-5.56,2.36-5.56,5.51,0,3.09,2.4,5.57,5.41,5.59,3,.02,5.46-2.43,5.52-5.51,.06-3.06-2.35-5.57-5.38-5.59Z"/><path class="uuid-a757a00b-6c86-430c-ba55-1446a837e8b8" d="M249.65,50.38c2.04-.88,3.29-.26,4.45,1.41,1.15,1.65,.78,3.43-.67,4.52-1.26-1.98-2.52-3.96-3.78-5.93Z"/><path class="uuid-a757a00b-6c86-430c-ba55-1446a837e8b8" d="M328.39,158.89c.64,1.03,1.24,1.97,1.83,2.91-.07,.1-.15,.2-.22,.3-.36-.21-.82-.34-1.05-.65-.51-.68-.84-1.51-1.38-2.16-.26-.32-.83-.5-1.26-.52-.16,0-.44,.61-.51,.98-.09,.53,0,1.09-.08,1.63-.03,.2-.29,.38-.45,.56-.13-.2-.38-.4-.39-.6-.03-1.99-.05-3.98,.02-5.97,0-.25,.48-.67,.77-.7,.81-.1,1.64-.05,2.45-.03,1.04,.03,1.96,.29,2.21,1.48,.26,1.28-.09,1.86-1.38,2.45-.14,.06-.27,.15-.56,.31Zm-1.31-3.48c-.97-.22-1.34,.22-1.34,1.29,0,1.07,.46,1.36,1.41,1.23,.23-.03,.46,0,.7-.02,.81-.07,1.48-.38,1.46-1.3-.01-.87-.68-1.13-1.43-1.2-.23-.02-.46,0-.79,0Z"/></g></g></svg>