<?xml version="1.0" encoding="UTF-8"?><svg id="uuid-784b3d1e-7844-4784-84ec-3cfc179073d6" xmlns="http://www.w3.org/2000/svg" viewBox="0 0 187.56 187.26"><defs><style>.uuid-b8bbfcfa-15a0-4f8c-84e1-3733f69eab89{fill:#fff;}.uuid-9a7fbcc6-f5d5-4ef3-9023-196e3e23047c{fill:#3636f2;}</style></defs><path class="uuid-9a7fbcc6-f5d5-4ef3-9023-196e3e23047c" d="M100.98,0c3.21,.5,6.46,.83,9.62,1.52,38.13,8.3,63.43,31.03,73.5,68.71,8.72,32.63,.81,62.24-22.04,87.2-17.27,18.87-39.14,28.62-64.77,29.74C50.54,189.2,9,155.62,1.32,109.58-6.83,60.77,23.49,14.39,71.28,2.67c4.45-1.09,9.05-1.55,13.59-2.31,.44-.07,.86-.24,1.29-.36,4.94,0,9.88,0,14.82,0Zm11.34,81.12c.6-7.12,4.14-23.12,6.77-29.18,1.31-3.03,3.01-5.97,5-8.59,2.53-3.33,6.12-5.05,10.43-5.02,4.51,.04,5.39,1.5,3.21,5.46-2.08,3.79-1.21,7.73,2.12,9.57,3.71,2.05,8.42,.77,10.44-2.83,2.61-4.66,1.22-10.09-3.49-13.07-4.36-2.77-9.23-3.34-14.25-2.77-8.29,.94-14.94,5.05-20.53,11.02-7.1,7.57-11.79,16.59-15.35,26.25-.26,.7-.54,1.39-.88,2.29-2.89-2.61-5.44-5.06-8.15-7.32-6.95-5.81-14.83-8.64-23.94-6.77-9.2,1.89-15.81,8.57-16.92,17.27-.9,7.07,2.14,12.85,6.69,17.97,1.95,2.19,4.05,4.25,5.98,6.46,3.07,3.51,3.11,7.87,0,11.24-4.65,5.04-12.02,4.05-16.24,.22-1.43-1.3-1.07-2.74-.27-4.35,.88-1.76,1.76-3.64,2-5.55,.51-4.19-2.37-7.61-6.34-8.01-4.07-.41-6.9,1.84-7.45,6.32-.76,6.17,2.16,10.75,7.05,14.06,6.57,4.45,13.9,6.03,21.73,4.68,5.2-.9,9.7-3.27,13.22-7.31,5.1-5.85,6.16-13.7,1.98-20.21-2.93-4.57-6.71-8.6-10.2-12.8-1.49-1.79-2.7-3.66-2.84-6.03-.35-5.85,5.11-10.21,11.35-9.12,4.73,.83,8.83,2.94,12.42,6.06,2.46,2.15,4.84,4.4,7.36,6.48,1,.82,1.07,1.53,.78,2.72-1.88,7.91-3.68,15.83-5.45,23.77-2.29,10.27-4.32,20.6-6.86,30.81-1.57,6.31-4.31,12.2-8.85,17.06-2.66,2.84-5.78,4.94-9.73,5.51-1.38,.2-3,.09-3.28-1.46-.15-.85,.72-2.22,1.53-2.85,3.84-2.97,4.21-7.53,.71-10.93-2.68-2.6-6.62-3.05-10.19-1.17-3.89,2.05-5.98,6.21-5.2,10.35,.93,4.99,4.96,8.62,10.75,9.63,7.37,1.29,14.05-.76,20.22-4.56,10.18-6.27,16.88-15.58,21.98-26.13,5.15-10.67,7.62-22.15,9.72-33.72,.69-3.78,1.38-7.55,2.06-11.29,3.6,0,6.95,.23,10.25-.05,6.05-.51,11.63-2.36,15.95-6.93,2.16-2.28,3.34-4.95,2.99-8.18-.27-2.51-2.11-5.05-4.26-5.56-2.66-.64-4.89,.24-6.63,2.28-1.7,1.99-1.71,3.71-.2,6.43,.26,.47,.52,.93,.76,1.41,.77,1.56,.44,2.89-1.01,3.82-5.28,3.36-11.05,3.22-16.95,2.6Z"/><path class="uuid-b8bbfcfa-15a0-4f8c-84e1-3733f69eab89" d="M112.32,81.12c5.89,.62,11.67,.76,16.95-2.6,1.46-.93,1.78-2.26,1.01-3.82-.24-.48-.5-.94-.76-1.41-1.51-2.72-1.5-4.44,.2-6.43,1.74-2.04,3.97-2.92,6.63-2.28,2.15,.52,3.99,3.06,4.26,5.56,.34,3.22-.83,5.89-2.99,8.18-4.33,4.57-9.9,6.42-15.95,6.93-3.3,.28-6.65,.05-10.25,.05-.68,3.74-1.37,7.51-2.06,11.29-2.1,11.57-4.57,23.05-9.72,33.72-5.1,10.55-11.8,19.86-21.98,26.13-6.17,3.8-12.85,5.86-20.22,4.56-5.79-1.02-9.82-4.64-10.75-9.63-.78-4.14,1.31-8.3,5.2-10.35,3.57-1.88,7.51-1.43,10.19,1.17,3.5,3.39,3.13,7.96-.71,10.93-.81,.62-1.68,2-1.53,2.85,.28,1.56,1.9,1.66,3.28,1.46,3.95-.57,7.07-2.67,9.73-5.51,4.54-4.85,7.29-10.75,8.85-17.06,2.53-10.21,4.57-20.54,6.86-30.81,1.77-7.93,3.57-15.86,5.45-23.77,.28-1.19,.22-1.89-.78-2.72-2.52-2.08-4.9-4.33-7.36-6.48-3.59-3.13-7.69-5.23-12.42-6.06-6.24-1.1-11.7,3.27-11.35,9.12,.14,2.37,1.35,4.23,2.84,6.03,3.49,4.19,7.27,8.23,10.2,12.8,4.18,6.51,3.13,14.35-1.98,20.21-3.52,4.04-8.02,6.41-13.22,7.31-7.83,1.36-15.17-.23-21.73-4.68-4.89-3.31-7.81-7.89-7.05-14.06,.55-4.48,3.38-6.73,7.45-6.32,3.96,.4,6.85,3.82,6.34,8.01-.23,1.91-1.12,3.8-2,5.55-.8,1.61-1.16,3.05,.27,4.35,4.22,3.82,11.58,4.81,16.24-.22,3.11-3.37,3.08-7.73,0-11.24-1.93-2.21-4.04-4.26-5.98-6.46-4.54-5.12-7.59-10.89-6.69-17.97,1.11-8.7,7.72-15.38,16.92-17.27,9.11-1.87,16.99,.96,23.94,6.77,2.71,2.26,5.26,4.71,8.15,7.32,.35-.9,.63-1.59,.88-2.29,3.56-9.66,8.25-18.68,15.35-26.25,5.59-5.96,12.24-10.07,20.53-11.02,5.02-.57,9.89,0,14.25,2.77,4.71,2.99,6.1,8.41,3.49,13.07-2.02,3.6-6.73,4.88-10.44,2.83-3.32-1.83-4.2-5.78-2.12-9.57,2.18-3.96,1.3-5.43-3.21-5.46-4.31-.04-7.9,1.69-10.43,5.02-1.99,2.62-3.69,5.56-5,8.59-2.63,6.07-6.16,22.06-6.77,29.18Z"/></svg>