<?xml version="1.0" encoding="utf-8"?>
<!-- Generator: Adobe Illustrator 27.0.1, SVG Export Plug-In . SVG Version: 6.00 Build 0)  -->
<svg version="1.1" id="uuid-c8908ad2-07e6-4512-a997-929fccb93be2"
	 xmlns="http://www.w3.org/2000/svg" xmlns:xlink="http://www.w3.org/1999/xlink" x="0px" y="0px" viewBox="0 0 244 208.3"
	 style="enable-background:new 0 0 244 208.3;" xml:space="preserve">
<style type="text/css">
	.st0{fill:#3636F2;}
	.st1{fill:#FFFFFF;}
</style>
<polygon class="st0" points="0,0 146.5,0 133.5,150.3 73.2,167.6 13.4,150.3 "/>
<polygon class="st1" points="27.7,30.6 119.7,30.6 118.4,49.2 47.8,49.2 49.5,67.7 116.1,67.7 111.6,124.7 73.7,135.4 35.6,125.6 
	33.7,96.1 52,96.1 52.9,109.6 73.7,116.4 93.4,110.4 95.6,86.9 32.6,86.9 "/>
<polygon class="st0" points="244,43.2 146.5,43.2 136.8,153.5 109.4,160.4 113.2,191.3 172.7,208.3 231.6,191.6 "/>
<polygon class="st1" points="173.1,90.9 142.2,91.7 143.9,73 217.9,73 216.3,91.7 174,110 214.5,110 209.8,165.9 172.1,177.2 
	134.9,167.6 133.6,154.3 136.8,153.5 138.2,137.8 150.4,137.8 151.8,152.3 172.2,158.2 192.9,152.1 194.4,128.1 139,128.2 
	141.1,104.5 "/>
</svg>
