<?xml version="1.0" encoding="UTF-8"?><svg id="uuid-fb5ff9e5-59d7-4182-81bb-14029dbba9c4" xmlns="http://www.w3.org/2000/svg" viewBox="0 0 201.49 201.49"><defs><style>.uuid-2fdac1f5-f5b9-4c0f-a1d0-f6dff88e5527{fill:#fff;}.uuid-7c3a7f4e-b0b0-4ea1-9885-103338c08154{fill:#3636f2;}</style></defs><path class="uuid-7c3a7f4e-b0b0-4ea1-9885-103338c08154" d="M201.49,201.49H0V0c67.16,0,134.33,0,201.49,0V201.49Zm-81.57-35.17c.17,.34,.29,.62,.43,.88,3.65,6.71,8.94,11.67,15.88,14.87,4.57,2.1,9.39,3.2,14.39,3.55,6.86,.47,13.58-.14,19.96-2.9,6.62-2.86,11.47-7.48,13.88-14.41,1.38-3.97,1.67-8.07,1.29-12.24-.42-4.69-1.8-9.02-4.63-12.83-2.98-4.02-6.88-6.99-11.27-9.22-4.9-2.49-9.96-4.66-14.95-6.97-2.64-1.22-5.27-2.43-7.57-4.26-4.25-3.39-4.23-11.55,1.79-13.91,4.25-1.67,8.35-1.12,12.03,1.69,1.67,1.28,2.84,2.99,3.91,4.78,.15,.25,.32,.49,.51,.78,4.97-3.19,9.85-6.33,14.73-9.46-.05-.17-.05-.25-.09-.32-2.46-4.28-5.54-7.99-9.76-10.66-3.83-2.43-8.06-3.63-12.55-4.08-5.32-.53-10.56-.23-15.63,1.56-6.97,2.47-12.11,6.94-14.93,13.88-1.64,4.05-2.01,8.27-1.62,12.6,.49,5.35,2.25,10.17,5.77,14.29,3.37,3.94,7.62,6.74,12.25,8.93,4.59,2.18,9.28,4.15,13.91,6.25,2.24,1.02,4.42,2.16,6.28,3.82,2.22,1.99,3.15,4.5,2.85,7.45-.35,3.44-2.38,5.7-5.42,6.99-5.3,2.25-10.65,1.97-15.88-.27-4.19-1.8-7.08-5.09-9.5-8.84-.19-.29-.39-.58-.62-.91-5.18,3.01-10.27,5.97-15.42,8.96Zm-66.81,1.97c-.03,.14-.04,.17-.03,.19,.03,.11,.07,.21,.12,.31,3.48,7.07,8.71,12.28,16.22,14.95,7.42,2.63,14.98,2.7,22.51,.6,7.01-1.95,12.18-6.21,15.18-12.92,2.03-4.55,2.7-9.38,2.7-14.31,.02-21.24,0-42.47,.03-63.71,0-.74-.2-.94-.94-.94-5.76,.03-11.53,.02-17.29,.02h-.86v1.4c0,20.7,.01,41.41-.02,62.11,0,1.89-.13,3.81-.45,5.67-.54,3.07-2.08,5.49-5.24,6.48-.82,.26-1.69,.41-2.54,.51-4.05,.46-7.58-.57-10.17-3.85-1.21-1.53-2.19-3.23-3.27-4.86-.19-.29-.38-.59-.59-.93-5.19,3.14-10.3,6.23-15.34,9.29Z"/><path class="uuid-2fdac1f5-f5b9-4c0f-a1d0-f6dff88e5527" d="M119.92,166.32c5.15-2.99,10.24-5.95,15.42-8.96,.23,.33,.43,.62,.62,.91,2.43,3.75,5.31,7.04,9.5,8.84,5.23,2.24,10.58,2.52,15.88,.27,3.04-1.29,5.07-3.55,5.42-6.99,.3-2.94-.62-5.45-2.85-7.45-1.86-1.66-4.04-2.8-6.28-3.82-4.63-2.1-9.32-4.07-13.91-6.25-4.63-2.2-8.87-4.99-12.25-8.93-3.52-4.12-5.28-8.93-5.77-14.29-.39-4.33-.03-8.55,1.62-12.6,2.81-6.94,7.96-11.42,14.93-13.88,5.07-1.79,10.31-2.1,15.63-1.56,4.48,.45,8.71,1.65,12.55,4.08,4.22,2.67,7.3,6.38,9.76,10.66,.04,.07,.05,.15,.09,.32-4.87,3.13-9.76,6.27-14.73,9.46-.19-.29-.36-.53-.51-.78-1.07-1.79-2.24-3.5-3.91-4.78-3.68-2.82-7.78-3.36-12.03-1.69-6.02,2.36-6.03,10.52-1.79,13.91,2.3,1.84,4.93,3.05,7.57,4.26,4.99,2.31,10.05,4.48,14.95,6.97,4.39,2.23,8.29,5.21,11.27,9.22,2.83,3.81,4.21,8.14,4.63,12.83,.37,4.17,.09,8.27-1.29,12.24-2.41,6.93-7.26,11.55-13.88,14.41-6.38,2.76-13.09,3.38-19.96,2.9-5.01-.35-9.83-1.45-14.39-3.55-6.94-3.2-12.23-8.16-15.88-14.87-.14-.26-.26-.54-.43-.88Z"/><path class="uuid-2fdac1f5-f5b9-4c0f-a1d0-f6dff88e5527" d="M53.1,168.29c5.05-3.06,10.16-6.15,15.34-9.29,.21,.33,.39,.63,.59,.93,1.08,1.63,2.06,3.33,3.27,4.86,2.6,3.28,6.13,4.32,10.17,3.85,.86-.1,1.72-.25,2.54-.51,3.16-.99,4.7-3.41,5.24-6.48,.33-1.86,.45-3.78,.45-5.67,.03-20.7,.02-41.41,.02-62.11v-1.4h.86c5.76,0,11.53,.01,17.29-.02,.74,0,.94,.2,.94,.94-.02,21.24,0,42.47-.03,63.71,0,4.93-.67,9.76-2.7,14.31-3,6.71-8.17,10.97-15.18,12.92-7.53,2.1-15.09,2.03-22.51-.6-7.51-2.66-12.74-7.88-16.22-14.95-.05-.1-.08-.21-.12-.31,0-.02,0-.05,.03-.19Z"/></svg>